<?xml version="1.0" standalone="no"?>
<!DOCTYPE svg PUBLIC "-//W3C//DTD SVG 20010904//EN"
 "http://www.w3.org/TR/2001/REC-SVG-20010904/DTD/svg10.dtd">
<svg version="1.0" xmlns="http://www.w3.org/2000/svg"
 width="1520.000000pt" height="1520.000000pt" viewBox="0 0 1520.000000 1520.000000"
 preserveAspectRatio="xMidYMid meet">
<metadata>
Created by potrace 1.11, written by Peter Selinger 2001-2013
</metadata>
<g transform="translate(0.000000,1520.000000) scale(0.100000,-0.100000)"
fill="#000000" stroke="none">
<path d="M6770 13800 c-245 -34 -531 -148 -860 -343 -70 -42 -359 -187 -405
-203 -254 -92 -321 -111 -555 -158 -266 -53 -381 -86 -560 -159 -140 -58 -154
-64 -239 -115 -103 -62 -174 -128 -276 -257 -22 -27 -42 -52 -45 -55 -3 -3
-18 -23 -35 -45 -84 -114 -252 -265 -500 -450 -170 -127 -231 -178 -303 -254
-76 -80 -190 -228 -255 -330 -52 -82 -153 -285 -192 -384 -58 -151 -85 -227
-85 -239 0 -7 -18 -40 -40 -73 l-40 -60 -167 0 c-155 0 -172 -2 -214 -23 -117
-57 -225 -225 -409 -632 -28 -63 -55 -119 -59 -123 -5 -5 -96 44 -202 108
-243 146 -348 198 -382 190 -72 -19 -177 -159 -281 -376 -73 -152 -106 -242
-142 -379 -52 -199 -70 -440 -38 -519 15 -37 32 -49 79 -56 11 -2 40 -10 65
-18 25 -9 152 -41 282 -72 161 -38 238 -61 238 -70 0 -7 -9 -56 -20 -110 -27
-133 -65 -358 -92 -550 -17 -128 -22 -209 -22 -400 -1 -277 4 -296 79 -341 44
-26 192 -77 258 -89 20 -4 40 -11 43 -17 3 -5 -1 -52 -10 -106 -60 -386 -78
-537 -79 -677 -2 -136 10 -316 24 -352 5 -13 9 -37 9 -53 0 -47 54 -248 96
-360 46 -121 56 -145 89 -215 57 -121 71 -148 105 -210 74 -135 140 -267 195
-390 31 -71 61 -137 65 -146 4 -8 20 -47 35 -85 14 -38 30 -78 35 -89 5 -11
32 -83 60 -160 29 -77 61 -158 71 -181 11 -23 19 -45 19 -49 0 -20 164 -352
186 -376 8 -8 14 -19 14 -24 0 -13 58 -102 113 -175 52 -68 232 -250 333 -335
123 -104 302 -294 396 -420 4 -5 21 -26 38 -46 16 -20 30 -42 30 -48 0 -6 4
-11 8 -11 4 0 30 -32 57 -71 67 -95 286 -390 305 -410 8 -8 36 -38 61 -65 26
-27 68 -67 94 -89 27 -22 62 -53 79 -68 17 -15 51 -41 76 -57 25 -16 52 -35
60 -42 50 -44 274 -161 445 -233 124 -52 306 -100 415 -110 25 -2 182 -7 350
-10 378 -7 380 -7 380 -14 0 -3 18 -6 40 -5 68 2 310 -43 310 -58 0 -4 6 -5
14 -2 8 3 17 1 20 -5 4 -6 13 -8 21 -4 25 9 65 -5 59 -22 -4 -8 -1 -15 5 -15
6 0 11 5 11 10 0 6 11 10 25 10 14 0 25 -4 25 -9 0 -5 22 -11 50 -15 27 -4 52
-11 55 -16 4 -6 16 -8 29 -4 33 8 156 -34 156 -53 0 -12 3 -13 15 -3 8 6 18 9
23 6 4 -2 26 -7 48 -10 51 -7 189 -42 205 -52 7 -4 27 -9 44 -11 16 -2 41 -5
55 -8 274 -55 391 -75 452 -75 26 0 50 -5 53 -10 4 -7 13 -7 26 0 11 6 24 8
29 5 16 -10 220 -12 226 -3 3 5 10 5 17 1 14 -8 89 -5 97 5 3 4 16 8 30 9 82
6 129 12 160 22 24 8 36 8 39 0 1 -5 9 -2 17 8 12 15 15 16 23 3 9 -12 11 -12
17 3 5 14 9 15 20 6 8 -6 14 -8 14 -3 0 15 53 35 61 23 4 -7 8 -5 12 5 4 9 16
16 27 16 12 0 34 7 50 15 17 9 33 16 37 17 11 1 55 18 76 30 10 5 44 17 75 28
31 10 89 29 127 43 39 14 95 30 125 37 30 7 60 16 65 20 13 10 209 52 227 49
7 -1 20 1 28 4 17 7 145 26 230 33 641 57 925 106 1130 196 115 50 344 177
394 219 6 5 41 32 78 59 38 28 96 76 130 108 200 183 429 362 533 414 33 17
74 41 91 54 17 13 35 24 39 24 5 0 18 8 29 18 27 23 158 98 311 177 147 76
265 146 317 188 22 18 56 63 80 106 23 42 55 94 73 116 17 22 42 59 55 82 26
47 36 51 20 8 -10 -26 -9 -27 7 -14 52 40 75 73 93 130 28 87 24 97 -7 16 -15
-41 -29 -64 -33 -57 -6 9 -9 9 -13 -1 -13 -29 7 50 34 140 16 51 27 96 25 100
-3 4 -1 24 4 44 4 20 4 37 0 37 -15 0 39 194 100 355 91 241 110 280 133 280
6 0 12 5 13 10 0 6 6 22 13 36 10 19 19 25 33 21 14 -3 16 -7 7 -13 -7 -4 -17
-5 -21 -3 -8 5 -9 -4 -12 -66 -1 -14 -5 -31 -10 -38 -4 -7 -9 -39 -11 -70 l-4
-57 20 40 c12 24 18 50 14 65 -4 17 -3 21 4 11 10 -15 19 0 97 160 46 94 159
295 180 319 7 8 19 26 26 40 7 14 44 70 81 125 89 132 93 139 153 220 61 84
83 122 62 109 -25 -16 -35 -12 -30 12 2 13 0 24 -6 24 -6 0 0 37 14 87 28 102
28 104 9 78 -14 -17 -15 -15 -9 30 3 28 23 102 44 165 21 63 41 130 45 148 4
17 11 32 17 32 6 0 8 9 5 20 -3 11 -2 18 2 15 4 -2 18 41 31 96 14 57 27 94
30 84 3 -10 11 9 19 47 35 158 39 174 41 143 l1 -30 13 30 c7 17 16 47 20 68
4 21 11 35 17 32 5 -4 7 -10 4 -15 -3 -4 -1 -19 4 -32 7 -16 10 12 10 98 1 96
-2 124 -14 134 -9 7 -15 29 -15 54 0 30 -3 37 -10 26 -8 -12 -10 -8 -11 15 -1
17 -6 -4 -11 -45 -10 -78 -13 -88 -25 -76 -10 9 -21 497 -12 511 4 6 9 28 13
50 5 33 4 37 -6 25 -7 -8 -21 -21 -30 -29 -17 -13 -18 -9 -17 55 2 61 3 64 9
29 l7 -40 2 35 c3 67 13 110 27 110 8 0 14 -6 15 -12 0 -7 9 14 20 47 12 37
23 114 30 200 5 77 19 199 29 271 26 177 36 324 22 324 -6 0 -13 17 -15 38 -2
25 -4 16 -5 -25 -4 -131 -29 -45 -47 165 -6 61 -5 72 8 72 9 0 18 -10 20 -22
l4 -23 2 23 c0 12 6 22 12 22 8 0 10 18 6 58 -3 38 -2 50 4 37 19 -42 -3 100
-36 229 -81 314 -104 403 -115 426 -9 22 -10 23 -6 3 6 -32 -1 -29 -20 10 -9
17 -24 39 -34 48 -17 17 -69 157 -88 239 -6 25 -13 54 -17 65 -3 11 7 -5 24
-35 37 -67 39 -57 6 40 -27 82 -30 105 -15 95 6 -3 10 -2 10 3 0 18 -48 150
-80 217 -36 77 -174 424 -196 494 -20 62 -1 76 21 17 23 -61 28 -54 10 14 -8
30 -12 62 -10 70 3 9 1 30 -4 48 -7 23 -6 30 1 26 7 -5 9 4 6 24 -3 23 -1 29
10 24 12 -4 14 0 9 19 -12 53 -28 179 -23 188 8 12 -54 230 -71 246 -7 8 -17
36 -22 62 -11 56 -55 181 -83 237 -15 30 -22 36 -29 25 -13 -20 -11 -37 2 -19
9 12 10 12 5 -3 -3 -10 -6 -20 -6 -23 0 -2 -16 13 -36 34 -20 20 -33 31 -29
25 14 -28 -14 -11 -41 24 -45 59 -94 143 -83 143 6 0 -8 26 -30 58 -23 32 -41
63 -41 69 0 7 -26 32 -58 58 -75 58 -182 189 -182 221 0 5 23 -14 52 -41 37
-36 31 -27 -23 33 -41 46 -90 106 -109 135 -52 76 -143 188 -149 182 -2 -3
-22 11 -42 31 -33 32 -37 34 -32 14 l6 -24 -31 23 c-17 12 -34 26 -37 32 -4 5
-10 7 -15 4 -8 -5 -76 72 -79 90 -3 18 -104 115 -179 173 -127 98 -204 151
-286 195 -84 45 -82 61 3 28 28 -10 51 -18 51 -16 0 16 -175 94 -460 205 -96
37 -197 78 -224 89 -63 28 -70 21 -10 -9 39 -19 93 -60 80 -60 -13 0 -188 87
-281 139 -147 84 -213 132 -456 332 -24 21 -58 45 -76 55 -17 11 -85 51 -150
89 -257 152 -383 200 -592 223 -135 15 -156 15 -310 -1 -91 -10 -213 -24 -271
-33 -490 -69 -633 -73 -980 -28 -151 19 -450 61 -570 79 -140 21 -163 24 -300
29 -69 3 -154 1 -190 -4z m1393 -1904 c37 -206 142 -457 268 -647 139 -208
446 -478 689 -605 227 -120 314 -141 572 -139 103 0 191 4 195 9 4 4 11 80 15
169 7 183 21 299 44 384 9 32 18 68 21 81 3 12 10 25 16 29 7 4 8 -12 3 -48
-3 -30 -9 -126 -13 -214 -6 -156 -3 -194 38 -615 26 -262 90 -494 185 -662 80
-142 175 -258 365 -447 93 -93 169 -177 169 -186 0 -9 4 -14 9 -11 5 3 11 -3
14 -14 4 -16 2 -18 -13 -10 -10 5 -27 21 -37 34 -10 13 -34 31 -52 41 -18 9
-97 80 -174 157 -98 98 -126 123 -95 82 25 -33 75 -87 111 -121 36 -35 63 -63
61 -63 -3 0 0 -9 6 -20 6 -11 16 -20 22 -20 6 0 3 10 -8 23 l-19 22 22 -19
c13 -10 20 -22 18 -27 -8 -11 119 -113 184 -148 88 -47 181 -75 166 -51 -10
16 0 12 25 -10 12 -11 26 -17 31 -14 5 2 40 46 78 97 85 113 229 260 247 253
7 -3 11 0 8 7 -4 13 51 54 100 75 23 9 7 -10 -59 -72 -49 -46 -93 -82 -96 -80
-22 13 -197 -245 -273 -400 -170 -348 -246 -665 -246 -1029 0 -220 38 -518 91
-707 43 -157 153 -381 223 -455 18 -19 57 -74 87 -122 29 -49 57 -92 62 -98 4
-5 26 -35 48 -65 22 -30 63 -82 92 -114 57 -65 94 -122 84 -132 -12 -13 -94
28 -146 74 -72 63 -151 141 -151 150 0 4 -23 31 -50 60 -27 30 -52 62 -55 73
-6 19 -7 19 -33 -2 -15 -11 -80 -61 -145 -110 -114 -88 -280 -248 -370 -359
-117 -145 -260 -394 -318 -553 -58 -159 -75 -258 -86 -497 -5 -126 -4 -134 59
-610 6 -46 14 -97 19 -113 15 -53 -15 -12 -61 81 -51 104 -63 134 -82 202 -5
19 -13 51 -19 70 -28 106 -47 230 -51 338 -1 29 -5 55 -9 58 -4 2 -69 -12
-145 -31 -75 -19 -141 -32 -146 -29 -4 3 -8 0 -8 -6 0 -7 -7 -10 -15 -6 -8 3
-15 1 -15 -5 0 -6 -7 -9 -15 -5 -8 3 -15 1 -15 -4 0 -5 -7 -7 -15 -4 -8 4 -15
1 -15 -6 0 -7 -7 -10 -15 -6 -8 3 -15 1 -15 -5 0 -6 -4 -8 -9 -4 -25 15 -235
-86 -361 -173 -126 -87 -282 -267 -406 -467 -93 -150 -317 -601 -358 -719 -4
-10 -9 -17 -12 -14 -12 12 63 281 117 418 11 30 32 84 46 120 44 116 73 170
99 182 34 16 26 39 -21 63 -55 27 -206 28 -285 1 -144 -49 -265 -111 -375
-195 -85 -65 -263 -239 -347 -340 -96 -114 -93 -112 -68 -61 29 57 86 145 124
190 60 70 221 220 253 235 18 9 33 20 33 25 0 6 5 10 10 10 6 0 24 12 40 26
16 15 38 32 49 38 115 65 132 78 122 90 -9 10 -8 15 3 19 7 3 18 2 23 -1 5 -4
-5 5 -21 20 -32 29 -138 86 -174 93 -12 2 -27 7 -32 10 -6 3 -10 4 -10 1 0 -3
18 -15 40 -26 78 -40 39 -28 -55 16 -52 25 -100 42 -107 38 -7 -5 -8 -3 -3 6
6 10 3 12 -13 8 -14 -4 -20 -2 -15 5 4 6 -2 8 -15 5 -14 -4 -20 -2 -15 5 4 6
0 8 -10 4 -10 -3 -17 -2 -17 4 0 6 -9 8 -21 4 -16 -5 -19 -4 -14 6 6 9 2 11
-13 7 -12 -4 -22 -2 -22 4 0 5 -10 6 -21 3 -16 -5 -19 -4 -14 5 6 10 1 11 -19
6 -15 -4 -26 -2 -26 4 0 6 -11 8 -26 4 -21 -5 -25 -4 -19 6 5 9 4 11 -4 6 -6
-4 -36 -4 -67 0 -35 4 -51 10 -43 15 7 4 -7 5 -31 2 -27 -4 -41 -2 -37 4 3 5
-8 10 -26 10 -18 0 -97 6 -176 12 -364 29 -684 -38 -1038 -218 -197 -101 -367
-223 -550 -398 -46 -43 -83 -75 -83 -72 0 4 23 41 50 82 61 91 163 195 273
278 99 75 108 82 83 73 -21 -8 -35 9 -37 46 0 23 -1 23 -8 5 -6 -14 -13 8 -26
80 -24 140 -58 274 -100 395 -35 99 -121 279 -166 347 -24 37 -22 39 17 18 15
-8 30 -13 31 -11 4 4 -37 77 -47 86 -3 3 -23 30 -45 60 -34 48 -75 96 -137
162 -10 10 -18 27 -18 37 0 24 -45 60 -83 68 -15 3 -37 17 -48 32 -12 14 -23
26 -26 26 -3 0 -20 14 -38 30 -61 58 -205 125 -180 84 3 -5 -1 -6 -9 -3 -9 3
-13 11 -9 17 3 5 2 7 -4 4 -5 -3 -57 9 -115 28 -59 19 -148 41 -200 50 -108
17 -322 20 -435 4 -84 -11 -247 -64 -380 -122 -46 -20 -83 -32 -83 -27 0 5 10
12 22 16 13 4 27 12 33 19 29 35 307 128 480 161 112 21 121 22 227 23 l87 1
-3 38 c-3 39 11 82 26 82 5 0 6 5 3 10 -3 6 -2 10 4 10 6 0 8 7 5 15 -4 8 -1
15 5 15 6 0 10 3 9 8 -1 4 4 20 10 35 7 16 23 72 36 125 81 319 135 803 116
1030 -27 323 -104 500 -306 699 -77 76 -108 99 -178 133 l-85 40 -43 -47 c-48
-53 -225 -225 -275 -268 -63 -52 -32 -9 53 75 148 147 314 347 402 484 89 139
179 354 226 541 49 195 61 317 61 610 0 240 -3 283 -23 383 -38 186 -103 349
-198 494 -49 74 -165 205 -220 248 -19 16 -30 31 -24 35 32 20 190 -108 279
-225 81 -107 112 -173 209 -440 l28 -75 53 -14 c151 -41 460 66 749 259 165
111 262 191 388 322 189 197 323 389 431 615 65 136 72 166 48 193 -10 11 -15
23 -12 26 3 4 -17 34 -46 69 -99 118 -107 130 -157 230 -50 102 -80 195 -80
250 0 26 6 19 43 -50 24 -44 60 -107 81 -138 20 -32 33 -63 30 -69 -4 -7 -2
-8 4 -4 11 6 16 -6 13 -27 0 -4 5 -6 11 -5 7 2 13 -5 13 -14 0 -9 4 -20 9 -25
5 -5 6 -2 1 6 -6 10 -4 12 4 7 7 -5 10 -14 7 -21 -2 -7 5 -21 17 -32 l22 -18
-20 25 c-26 33 -3 10 80 -80 l69 -75 -69 65 -70 65 65 -68 c194 -204 492 -340
803 -367 184 -16 473 14 657 67 187 54 460 178 445 202 -2 5 -6 24 -9 43 -2
19 -16 61 -30 92 -14 31 -26 62 -26 69 0 7 -4 17 -9 23 -10 10 -63 157 -80
219 -6 22 -15 74 -21 115 -6 41 -13 85 -16 98 -2 12 -1 22 3 22 5 0 16 -42 26
-94z m4704 -698 c-3 -8 -6 -5 -6 6 -1 11 2 17 5 13 3 -3 4 -12 1 -19z m-10240
-376 c-65 -84 -179 -244 -175 -246 2 -1 48 -14 102 -30 55 -15 180 -59 278
-97 l179 -71 -20 -31 c-30 -49 -131 -225 -165 -289 -23 -42 -28 -60 -20 -68 8
-8 19 1 39 36 31 52 153 214 260 345 38 48 89 112 112 143 45 59 74 71 93 37
10 -20 4 -30 -118 -176 l-50 -60 46 -25 c121 -66 189 -129 222 -204 33 -74 22
-121 -94 -406 -30 -74 -54 -136 -52 -137 1 -1 25 4 54 11 29 8 97 22 153 31
l100 17 25 -27 c14 -15 22 -31 17 -35 -4 -4 -75 -18 -158 -30 -82 -12 -179
-30 -215 -40 -36 -9 -123 -28 -195 -40 -71 -12 -152 -29 -180 -37 -48 -15 -49
-15 -25 -27 25 -12 96 -10 288 9 l72 8 -16 -44 c-48 -136 -139 -467 -130 -476
2 -2 64 -8 138 -13 179 -12 207 -20 208 -56 0 -27 -47 -33 -156 -18 -172 23
-466 35 -481 20 -4 -4 0 -13 8 -21 10 -10 54 -19 132 -27 64 -6 117 -16 117
-21 0 -6 -16 -96 -35 -201 -66 -363 -74 -418 -56 -423 9 -2 61 -23 115 -46
132 -56 157 -90 111 -151 -10 -13 -18 -16 -27 -9 -35 28 -464 253 -482 253
-27 0 -18 -27 17 -53 17 -13 75 -48 127 -77 52 -29 96 -54 98 -55 3 -2 -23
-173 -38 -250 -6 -27 -20 -97 -31 -155 -26 -135 -46 -203 -75 -262 l-24 -48
40 -106 c43 -111 47 -156 18 -162 -11 -2 -18 3 -18 12 0 9 -6 16 -14 16 -13 0
-27 40 -143 405 -51 161 -59 121 -21 -113 11 -73 19 -134 17 -137 -13 -12
-249 -25 -360 -19 l-126 7 -6 -39 c-4 -22 -7 -60 -7 -85 0 -59 -23 -82 -77
-77 l-38 4 3 70 c1 38 14 148 28 244 13 96 27 191 29 210 11 79 -17 -9 -49
-155 -24 -111 -37 -151 -48 -153 -9 -2 -87 8 -174 23 -122 20 -159 23 -165 13
-4 -7 -22 -69 -39 -140 -18 -70 -38 -132 -45 -138 -10 -8 -20 -8 -38 2 l-24
13 43 145 c24 80 58 189 75 243 18 53 29 100 26 104 -13 12 -35 -19 -73 -102
-22 -47 -43 -85 -48 -85 -30 0 -288 75 -334 98 -51 24 -58 31 -65 67 -5 22 -7
135 -4 250 5 255 34 479 109 868 35 179 22 166 145 142 120 -23 185 -22 230 6
50 31 149 122 192 176 18 24 39 43 45 43 23 0 143 -86 202 -145 77 -76 111
-142 125 -242 15 -106 16 -108 34 -93 11 9 15 34 15 94 0 73 -4 90 -35 154
-43 90 -120 173 -226 244 -44 29 -79 56 -79 59 0 4 11 31 24 61 14 30 29 73
35 94 10 39 11 39 56 36 52 -5 177 21 243 49 93 40 242 166 242 204 0 21 -39
2 -116 -56 -110 -83 -233 -129 -344 -129 l-55 0 3 141 c3 111 0 155 -14 209
-17 66 -20 71 -83 118 -36 27 -103 71 -148 97 -46 25 -85 50 -88 55 -7 12 78
208 188 430 73 149 100 194 140 233 85 83 112 92 260 91 70 -1 130 -3 132 -6
3 -3 -20 -45 -51 -94 -71 -114 -116 -202 -109 -214 10 -16 25 -11 25 8 0 9 16
42 37 72 83 126 295 400 362 470 64 67 73 73 82 57 9 -15 3 -29 -34 -75z
m10500 -464 c-3 -8 -6 -5 -6 6 -1 11 2 17 5 13 3 -3 4 -12 1 -19z m-23 -24 c3
-8 2 -12 -4 -9 -6 3 -10 10 -10 16 0 14 7 11 14 -7z m128 -461 c10 -26 16 -49
13 -51 -5 -6 -31 48 -39 83 -11 42 5 23 26 -32z m150 -593 c60 -139 71 -173
56 -168 -17 6 -52 79 -93 193 -60 164 -38 149 37 -25z m-9647 -1640 c-16 -16
-34 -30 -39 -30 -10 1 53 59 63 60 3 0 -8 -13 -24 -30z m9758 -675 c-3 -14 -9
-25 -14 -25 -11 0 -12 35 -2 81 l7 34 7 -32 c3 -18 4 -44 2 -58z m44 -42 c-2
-16 -4 -3 -4 27 0 30 2 43 4 28 2 -16 2 -40 0 -55z m-13 -811 c-4 -31 -9 -49
-11 -39 -3 10 -9 14 -16 10 -8 -5 -8 -2 0 9 7 8 11 17 8 19 -2 3 1 23 7 45 15
52 22 27 12 -44z m-84 -259 c-14 -68 -86 -285 -107 -326 -23 -46 -25 -24 -4
39 10 33 31 102 45 154 46 168 97 268 66 133z m-154 -627 c-23 -61 -97 -201
-117 -221 -18 -18 2 47 29 95 14 25 43 78 64 118 22 39 41 72 44 72 2 0 -7
-29 -20 -64z m-50 -164 c-9 -17 -21 -34 -27 -37 -6 -4 -1 12 11 35 12 23 24
40 26 37 3 -3 -2 -19 -10 -35z m-426 -606 c0 -11 -19 -15 -25 -6 -3 5 1 10 9
10 9 0 16 -2 16 -4z m-4710 -222 c0 -2 -9 0 -20 6 -11 6 -20 13 -20 16 0 2 9
0 20 -6 11 -6 20 -13 20 -16z m4667 -6 c-3 -8 -6 -5 -6 6 -1 11 2 17 5 13 3
-3 4 -12 1 -19z m-333 -812 c-10 -31 -19 -54 -22 -52 -2 2 4 29 14 60 10 31
19 54 22 52 2 -2 -4 -29 -14 -60z"/>
<path d="M4874 6880 c0 -63 1 -89 3 -57 2 31 2 83 0 115 -2 31 -3 5 -3 -58z"/>
<path d="M4852 6638 c-6 -62 -21 -162 -33 -222 -11 -59 -18 -110 -16 -112 5
-5 44 181 52 251 14 109 21 195 15 195 -3 0 -11 -51 -18 -112z"/>
<path d="M4791 6274 c0 -11 3 -14 6 -6 3 7 2 16 -1 19 -3 4 -6 -2 -5 -13z"/>
<path d="M5821 4554 c0 -11 3 -14 6 -6 3 7 2 16 -1 19 -3 4 -6 -2 -5 -13z"/>
<path d="M5851 4404 c0 -11 3 -14 6 -6 3 7 2 16 -1 19 -3 4 -6 -2 -5 -13z"/>
<path d="M5975 4260 c-3 -6 1 -7 9 -4 18 7 21 14 7 14 -6 0 -13 -4 -16 -10z"/>
<path d="M12472 11870 c54 -62 58 -65 58 -52 0 9 -96 112 -105 112 -3 0 18
-27 47 -60z"/>
<path d="M12860 11300 c6 -11 13 -20 16 -20 2 0 0 9 -6 20 -6 11 -13 20 -16
20 -2 0 0 -9 6 -20z"/>
<path d="M13157 10669 c4 -13 8 -18 11 -10 2 7 -1 18 -6 23 -8 8 -9 4 -5 -13z"/>
<path d="M13664 8715 c3 -11 13 -65 21 -119 9 -55 20 -107 25 -115 5 -9 10
-13 10 -10 1 21 -43 235 -51 248 -8 13 -9 13 -5 -4z"/>
<path d="M13730 8619 c0 -9 3 -31 6 -49 5 -22 9 -28 15 -18 6 9 9 4 9 -14 0
-16 4 -28 8 -28 9 0 42 -107 42 -137 0 -24 19 -43 21 -21 4 48 -22 173 -32
156 -6 -8 -9 -2 -9 19 0 17 -4 33 -9 35 -5 2 -18 19 -30 38 -12 20 -21 28 -21
19z"/>
<path d="M13841 8604 c0 -11 3 -14 6 -6 3 7 2 16 -1 19 -3 4 -6 -2 -5 -13z"/>
<path d="M13852 8550 c0 -14 2 -19 5 -12 2 6 2 18 0 25 -3 6 -5 1 -5 -13z"/>
<path d="M13673 7385 c0 -22 2 -30 4 -17 2 12 2 30 0 40 -3 9 -5 -1 -4 -23z"/>
<path d="M13652 7180 c0 -14 2 -19 5 -12 2 6 2 18 0 25 -3 6 -5 1 -5 -13z"/>
<path d="M13630 7152 c0 -17 4 -34 10 -37 6 -4 7 6 3 27 -8 44 -13 48 -13 10z"/>
<path d="M13695 6060 c-6 -38 -25 -66 -25 -38 -2 56 -54 -165 -66 -277 -3 -27
-14 -83 -24 -124 -27 -105 -9 -75 35 59 20 63 41 124 46 135 14 35 37 147 44
218 7 73 1 91 -10 27z"/>
<path d="M13531 6004 c0 -11 3 -14 6 -6 3 7 2 16 -1 19 -3 4 -6 -2 -5 -13z"/>
<path d="M12345 2900 c-11 -5 -45 -27 -75 -50 -30 -22 -77 -51 -103 -64 -26
-13 -55 -30 -65 -39 -15 -13 -176 -99 -334 -178 -72 -36 -75 -45 -5 -16 174
71 511 259 600 333 29 24 20 31 -18 14z"/>
<path d="M3475 2060 c79 -103 270 -288 390 -378 181 -136 369 -218 665 -291
300 -73 504 -94 952 -95 321 -1 405 2 340 10 -9 1 -44 8 -77 14 -136 27 -241
38 -322 35 -58 -2 -73 0 -73 12 0 12 -3 12 -20 0 -14 -10 -33 -12 -65 -7 -25
4 -48 3 -51 -2 -3 -4 -10 -5 -16 -2 -9 6 -168 11 -373 14 -49 1 -205 30 -275
52 -159 50 -349 126 -392 158 -15 11 -33 20 -41 20 -7 0 -33 13 -58 28 -24 15
-70 41 -101 57 -32 16 -74 44 -95 62 -21 18 -43 33 -49 33 -6 0 -24 12 -41 28
-64 56 -83 72 -89 72 -9 0 -80 65 -174 160 l-84 85 49 -65z"/>
<path d="M5580 1449 c0 -5 5 -7 10 -4 6 3 10 8 10 11 0 2 -4 4 -10 4 -5 0 -10
-5 -10 -11z"/>
<path d="M6721 1077 c11 -13 325 -87 433 -103 78 -12 143 -15 216 -11 215 13
245 33 45 31 -74 0 -185 6 -247 13 -62 8 -122 14 -133 14 -10 0 -25 5 -32 10
-6 6 -17 8 -23 4 -5 -3 -56 4 -113 16 -151 32 -152 32 -146 26z"/>
</g>
</svg>
