<svg class="newgrounds" xmlns="http://www.w3.org/2000/svg" viewBox="0 0 24 24" fill="white"><path d="M264.4 19.45q-.35-.85-.65-1.6-1.15-2.75-2.6-5l-.5-.6q-2.3-2.7-4.7-4.8l-2.4-1.8q-.35-.2-.75-.45l-.8-.5q-1.4-.65-2.75-1.25-.3-.1-.55-.25-4.75-1.75-11.95-2.95h-50.6v.1h-9.1q-7.2 1.15-12 3-.2.1-.5.2-1.4.65-2.75 1.25-.35.2-.65.4-.5.3-.95.55l-2.35 1.85q-2.65 2.3-5.2 5.4-1.45 2.2-2.65 4.95-.3.75-.65 1.6-.05.2-.2.5-1.9 5.85-2.35 13.3l-.05 158.4q.5 3.05 1.1 5.7.8 3.55 1.85 6.25.1.2.2.55l1.3 2.7.3.5q.35.6.65 1.15l1.8 2.3q2.3 2.65 5.4 5.2 2.2 1.45 5 2.65.7.35 1.55.65.2.1.55.2 5.85 1.9 13.25 2.35l54.8-.15q7.4-.4 13.25-2.3.35-.1.55-.25.85-.3 1.55-.6 2.4-1.05 4.35-2.2.35-.25.65-.45 3.1-2.55 5.45-5.2l1.75-2.35q.45-.7 1-1.55.6-1.4 1.25-2.8.1-.3.2-.55.95-2.4 1.7-5.4.1-.35.15-.7 1-4.65.6-9.65v-78q.2-4.15-2.65-6.8-1.05-.85-2.45-1.6-.55-.25-1.2-.45-2.15-.7-4.95-.95-.7-.1-1.5-.15h-.55q-.7-.05-1.4-.05l-37.45.1q-2.85.55-4.8 2.55-.55.55-.95 1.25-.5.7-.9 1.55-.7 1.55-1.1 3.55-.55 2.7-.55 6.05-.2 18.35-.05 18.9.3 4.85 1.7 7.8.4 1.1.9 1.85.1.15.25.3.15.4.55.7 1.75 1.85 4.2 2.4l1.6.3h4.3v19.3q0 1.45-.3 2.65-.7 2.85-2.7 4.25l-.25.15q-1.9 1.1-4.75 1.2l-10.75-.1q-2.3-.25-3.8-1.25-2.1-1.4-2.85-4.25-.3-1.4-.3-3.2L194 56.25q0-1.85.3-3.2.45-1.8 1.5-2.95.55-.75 1.4-1.3 1.9-1.25 4.85-1.35l10.75.1q2.3.2 3.9 1.25.85.55 1.5 1.3.85 1.15 1.25 2.95.45 1.35.45 3.2V74.8q.5 2.85 2.45 4.75 1.25 1.05 2.85 1.9.4.25.85.3.85.35 1.8.55.9.25 2.1.45l22.05.5q.85-.05 1.65-.05.3-.05.55-.05 1.65-.15 3.1-.4 1.05-.2 1.9-.45.75-.2 1.45-.45l.9-.4q1.15-.55 2.1-1.15.35-.25.65-.55 1.8-1.8 2.3-4.25l.35-1.55v-.55l.1-30.1h-.1v-9.1-.95q-.4-7.4-2.35-13.3-.1-.3-.2-.5m-161.45-16q-.3-.1-.55-.25Q97.6 1.4 90.45.25h-74.4q-4.6 0-7.8 1.25-1.35.55-2.65 1.4-.2 0-.2.2-.65.55-1.15 1.05-.75.75-1.5 1.6l-.2.3Q.2 9.8.2 16.05v190.8q0 .45.05.9.3 5.15 2.5 8.55.45.55.75.85.85 1.05 1.9 2h.2q1.3.85 2.65 1.4.55.2 1.15.35.7.2 1.4.35 1.9.45 4.4.55h18.5q5-.4 8.4-2.65.3-.2.65-.55.8-.75 1.45-1.45.35-.3.75-.85 1.05-1.4 1.6-3.2.75-2.4 1-5.35 0-.45.05-.9V56.2q0-1.8.35-3.2.7-2.85 2.7-4.2 1.1-.65 2.45-.95 1.2-.45 2.55-.45h5.1v.15h.7v-.15l4.95.15q2.3.2 3.8 1.25 2.1 1.35 2.85 4.2.3 1.4.3 3.2v.55h.15V68.3h-.15v138.55l.1.9q.25 2.95 1 5.35.5 1.8 1.55 3.2.45.55.75.85.65.7 1.5 1.45.3.35.65.55 3.35 2.25 8.35 2.65H105.7q2.4-.1 4.35-.55 1.4-.3 2.55-.7 1.4-.55 2.65-1.4h.2q1.05-.95 1.9-2 .35-.3.75-.85 2.25-3.4 2.55-8.55V33.25q-.4-7.5-2.35-13.3-.1-.3-.2-.55-.35-.85-.65-1.55-1.15-2.75-2.6-5-2.55-3.1-5.2-5.4l-2.4-1.8q-.1-.1-.25-.15-2-1.2-4.05-2.05z"/></svg>